{
	"asset":{
		"generator":"Khronos glTF Blender I/O v4.3.47",
		"version":"2.0"
	},
	"scene":0,
	"scenes":[
		{
			"extras":{
				"my_custom_property":4.260000228881836,
				"global_property":2.7699999809265137,
				"my_slider":0.0,
				"my_slider_max":26.829998016357422,
				"my_slider_min":-34.62000274658203
			},
			"name":"Scene",
			"nodes":[
				11
			]
		}
	],
	"nodes":[
		{
			"extras":{
				"__go":"Cube",
				"my_slider_value":0.0,
				"slider_property":5.726600170135498
			},
			"mesh":0,
			"name":"TinyCube",
			"scale":[
				0.28917407989501953,
				0.28917407989501953,
				0.28917407989501953
			],
			"translation":[
				-2.9782001972198486,
				-1.8485513925552368,
				2.1894330978393555
			]
		},
		{
			"children":[
				0
			],
			"extras":{
				"__go":"Cube",
				"my_slider_value":0.0,
				"slider_property":5.726600170135498
			},
			"mesh":1,
			"name":"Cube",
			"translation":[
				4.826117038726807,
				2.596454381942749,
				-3.9831385612487793
			]
		},
		{
			"extras":{
				"random_data":1.0,
				"is_this_checked":true,
				"__id":"Monkey",
				"my_slider_value":0.0,
				"slider_property":5.726600170135498
			},
			"mesh":2,
			"name":"Monkey",
			"translation":[
				-6.501957893371582,
				2.798858880996704,
				-2.6240763664245605
			]
		},
		{
			"extras":{
				"speed":44.66999816894531
			},
			"name":"Curve"
		},
		{
			"extras":{
				"my_slider_value":0.0,
				"slider_property":5.726600170135498
			},
			"name":"Empty",
			"scale":[
				4,
				4,
				4
			]
		},
		{
			"extras":{
				"slider_property":5.726600170135498,
				"my_slider_value":0.0
			},
			"mesh":3,
			"name":"Torus"
		},
		{
			"extras":{
				"my_slider_value":0.0,
				"slider_property":5.726600170135498
			},
			"mesh":4,
			"name":"Pillar",
			"scale":[
				0.3630841374397278,
				0.3630841374397278,
				0.3630841374397278
			],
			"translation":[
				1.5665205717086792,
				-1.5568292140960693,
				4.2932844161987305
			]
		},
		{
			"extras":{
				"__id":"Pillar",
				"my_slider_value":0.0,
				"slider_property":5.726600170135498
			},
			"mesh":5,
			"name":"PillarTiny",
			"scale":[
				0.13777697086334229,
				0.13777697086334229,
				0.13777697086334229
			],
			"translation":[
				-2.3889212608337402,
				2.9423282146453857,
				-3.9634571075439453
			]
		},
		{
			"extras":{
				"__id":"Pillar",
				"my_slider_value":0.0,
				"slider_property":5.726600170135498
			},
			"mesh":6,
			"name":"PillarHuge",
			"scale":[
				0.4880939722061157,
				0.4880939722061157,
				0.4880939722061157
			],
			"translation":[
				-3.208226203918457,
				1.8273804187774658,
				4.252899169921875
			]
		},
		{
			"extras":{
				"my_slider_value":0.0,
				"slider_property":5.726600170135498
			},
			"mesh":7,
			"name":"Icosphere"
		},
		{
			"children":[
				6,
				7,
				8,
				9
			],
			"name":"NestedCollection"
		},
		{
			"children":[
				1,
				2,
				3,
				4,
				5,
				10
			],
			"name":"Scene Collection"
		}
	],
	"meshes":[
		{
			"name":"Cube.001",
			"primitives":[
				{
					"attributes":{
						"POSITION":0
					},
					"indices":1
				}
			]
		},
		{
			"name":"Cube",
			"primitives":[
				{
					"attributes":{
						"POSITION":2
					},
					"indices":1
				}
			]
		},
		{
			"name":"Suzanne",
			"primitives":[
				{
					"attributes":{
						"POSITION":3
					},
					"indices":4
				}
			]
		},
		{
			"name":"Torus",
			"primitives":[
				{
					"attributes":{
						"POSITION":5
					},
					"indices":6
				}
			]
		},
		{
			"name":"Cube.002",
			"primitives":[
				{
					"attributes":{
						"POSITION":7
					},
					"indices":8
				}
			]
		},
		{
			"name":"Cube.003",
			"primitives":[
				{
					"attributes":{
						"POSITION":9
					},
					"indices":8
				}
			]
		},
		{
			"name":"Cube.004",
			"primitives":[
				{
					"attributes":{
						"POSITION":10
					},
					"indices":8
				}
			]
		},
		{
			"name":"Icosphere",
			"primitives":[
				{
					"attributes":{
						"POSITION":11
					},
					"indices":12
				}
			]
		}
	],
	"accessors":[
		{
			"bufferView":0,
			"componentType":5126,
			"count":24,
			"max":[
				1,
				2,
				1
			],
			"min":[
				-1,
				0,
				-1
			],
			"type":"VEC3"
		},
		{
			"bufferView":1,
			"componentType":5123,
			"count":36,
			"type":"SCALAR"
		},
		{
			"bufferView":2,
			"componentType":5126,
			"count":24,
			"max":[
				1,
				2,
				1
			],
			"min":[
				-1,
				0,
				-1
			],
			"type":"VEC3"
		},
		{
			"bufferView":3,
			"componentType":5126,
			"count":2532,
			"max":[
				1.325934886932373,
				0.9392361640930176,
				0.8223199844360352
			],
			"min":[
				-1.325934886932373,
				-0.9704862236976624,
				-0.7782661318778992
			],
			"type":"VEC3"
		},
		{
			"bufferView":4,
			"componentType":5123,
			"count":11838,
			"type":"SCALAR"
		},
		{
			"bufferView":5,
			"componentType":5126,
			"count":576,
			"max":[
				1.25,
				0.25,
				1.25
			],
			"min":[
				-1.25,
				-0.25,
				-1.25
			],
			"type":"VEC3"
		},
		{
			"bufferView":6,
			"componentType":5123,
			"count":3456,
			"type":"SCALAR"
		},
		{
			"bufferView":7,
			"componentType":5126,
			"count":136,
			"max":[
				1.999999761581421,
				10,
				2
			],
			"min":[
				-2.000000238418579,
				-2.384185791015625e-07,
				-2
			],
			"type":"VEC3"
		},
		{
			"bufferView":8,
			"componentType":5123,
			"count":210,
			"type":"SCALAR"
		},
		{
			"bufferView":9,
			"componentType":5126,
			"count":136,
			"max":[
				1.999999761581421,
				10,
				2
			],
			"min":[
				-2.000000238418579,
				-2.384185791015625e-07,
				-2
			],
			"type":"VEC3"
		},
		{
			"bufferView":10,
			"componentType":5126,
			"count":136,
			"max":[
				1.999999761581421,
				10,
				2
			],
			"min":[
				-2.000000238418579,
				-2.384185791015625e-07,
				-2
			],
			"type":"VEC3"
		},
		{
			"bufferView":11,
			"componentType":5126,
			"count":42,
			"max":[
				0.9510578513145447,
				1,
				0.9999999403953552
			],
			"min":[
				-0.9510578513145447,
				-1,
				-0.9999999403953552
			],
			"type":"VEC3"
		},
		{
			"bufferView":12,
			"componentType":5123,
			"count":240,
			"type":"SCALAR"
		}
	],
	"bufferViews":[
		{
			"buffer":0,
			"byteLength":288,
			"byteOffset":0,
			"target":34962
		},
		{
			"buffer":0,
			"byteLength":72,
			"byteOffset":288,
			"target":34963
		},
		{
			"buffer":0,
			"byteLength":288,
			"byteOffset":360,
			"target":34962
		},
		{
			"buffer":0,
			"byteLength":30384,
			"byteOffset":648,
			"target":34962
		},
		{
			"buffer":0,
			"byteLength":23676,
			"byteOffset":31032,
			"target":34963
		},
		{
			"buffer":0,
			"byteLength":6912,
			"byteOffset":54708,
			"target":34962
		},
		{
			"buffer":0,
			"byteLength":6912,
			"byteOffset":61620,
			"target":34963
		},
		{
			"buffer":0,
			"byteLength":1632,
			"byteOffset":68532,
			"target":34962
		},
		{
			"buffer":0,
			"byteLength":420,
			"byteOffset":70164,
			"target":34963
		},
		{
			"buffer":0,
			"byteLength":1632,
			"byteOffset":70584,
			"target":34962
		},
		{
			"buffer":0,
			"byteLength":1632,
			"byteOffset":72216,
			"target":34962
		},
		{
			"buffer":0,
			"byteLength":504,
			"byteOffset":73848,
			"target":34962
		},
		{
			"buffer":0,
			"byteLength":480,
			"byteOffset":74352,
			"target":34963
		}
	],
	"buffers":[
		{
			"byteLength":74832,
			"uri":"test_map.bin"
		}
	]
}
